<?xml version="1.0" encoding="UTF-8"?>
<svg width="31px" height="29px" viewBox="0 0 31 29" version="1.1" xmlns="http://www.w3.org/2000/svg" xmlns:xlink="http://www.w3.org/1999/xlink">
    <!-- Generator: Sketch 51.2 (57519) - http://www.bohemiancoding.com/sketch -->
    <title>Combined Shape Copy 6</title>
    <desc>Created with Sketch.</desc>
    <defs></defs>
    <g id="Page-1" stroke="none" stroke-width="1" fill="none" fill-rule="evenodd">
        <path d="M10.5825681,7.63551539 L25.8909925,21.3192616 C26.2978521,21.1537302 26.7428738,21.0625335 27.2091956,21.0625335 C29.1421923,21.0625335 30.7091956,22.6295368 30.7091956,24.5625335 C30.7091956,26.4955301 29.1421923,28.0625335 27.2091956,28.0625335 C25.276199,28.0625335 23.7091956,26.4955301 23.7091956,24.5625335 C23.7091956,24.2034735 23.7632638,23.8570418 23.8637026,23.5309361 L8.63928921,9.92228491 L6.57294163,12.3538766 C6.49483187,12.6315998 6.293621,12.8526473 6.038551,12.9609181 C5.94286955,13.0015325 5.84049958,13.0261657 5.73432081,13.032645 C5.33736261,13.0585665 4.96969311,12.8314802 4.81482519,12.4666342 L0.074191904,1.29840207 C-0.0661464581,0.967785609 -0.00403941787,0.58697555 0.232104526,0.317451604 C0.471255089,0.0456058572 0.837670118,-0.0614518108 1.18535533,0.0345816659 L12.6936037,3.26065292 C13.0757626,3.36781214 13.3475447,3.70489282 13.3727482,4.10015968 C13.3979175,4.495346 13.1703214,4.8642775 12.8062003,5.01883773 L10.5825681,7.63551539 Z" id="Combined-Shape-Copy-6" fill="#000000" fill-rule="nonzero" transform="translate(15.354598, 14.031267) scale(-1, 1) translate(-15.354598, -14.031267) "></path>
    </g>
</svg>