<?xml version="1.0" encoding="UTF-8"?>
<svg width="30px" height="28px" viewBox="0 0 30 28" version="1.1" xmlns="http://www.w3.org/2000/svg" xmlns:xlink="http://www.w3.org/1999/xlink">
    <!-- Generator: Sketch 51.2 (57519) - http://www.bohemiancoding.com/sketch -->
    <title>Combined Shape Copy 8</title>
    <desc>Created with Sketch.</desc>
    <defs></defs>
    <g id="Page-1" stroke="none" stroke-width="1" fill="none" fill-rule="evenodd">
        <path d="M6.8466517,23.4721721 C14.1518197,23.2432451 17.5,21.6131364 17.5,19 C17.5,17.2430169 16.8680681,16.611085 14.3291796,15.3416408 C10.8680681,13.611085 9.5,12.2430169 9.5,9 C9.5,5.36718183 12.8672192,3.3468503 18.2058258,2.27912899 C19.917777,1.93673874 21.7381554,1.71829334 23.5564715,1.59707226 C23.5584029,1.5969435 23.560334,1.59681487 23.5622646,1.59668639 C24.1861766,0.635661974 25.2688549,0 26.5,0 C28.4329966,0 30,1.56700338 30,3.5 C30,5.43299662 28.4329966,7 26.5,7 C24.9630767,7 23.6575278,6.00936854 23.1870377,4.63179001 C21.6812606,4.75044575 20.1880365,4.94209855 18.7941742,5.22087101 C14.7577808,6.0281497 12.5,7.38281817 12.5,9 C12.5,10.7569831 13.1319319,11.388915 15.6708204,12.6583592 C19.1319319,14.388915 20.5,15.7569831 20.5,19 C20.5,23.9338634 15.5725571,26.276375 6.38327023,26.4846956 C5.75197905,27.4000608 4.69605118,28 3.5,28 C1.56700338,28 0,26.4329966 0,24.5 C0,22.5670034 1.56700338,21 3.5,21 C5.0753198,21 6.40756009,22.0407471 6.8466517,23.4721721 Z" id="Combined-Shape-Copy-8" fill="#000000" fill-rule="nonzero"></path>
    </g>
</svg>