<?xml version="1.0" encoding="UTF-8"?>
<svg width="28px" height="28px" viewBox="0 0 28 28" version="1.1" xmlns="http://www.w3.org/2000/svg" xmlns:xlink="http://www.w3.org/1999/xlink">
    <!-- Generator: Sketch 51.2 (57519) - http://www.bohemiancoding.com/sketch -->
    <title>Combined Shape</title>
    <desc>Created with Sketch.</desc>
    <defs></defs>
    <g id="Page-1" stroke="none" stroke-width="1" fill="none" fill-rule="evenodd">
        <path d="M0,10 L3,10 L3,25 L25,25 L25,3 L10,3 L10,1.13686838e-13 L25,0 C26.6568542,0 28,1.34314575 28,3 L28,25 C28,26.6568542 26.6568542,28 25,28 L3,28 C1.34314575,28 0,26.6568542 0,25 L0,10 Z M15.7408187,15.7421327 C15.5568538,15.9260975 15.3028072,16.020708 15.0435044,15.9961794 L8.22979775,15.3777071 C7.89165289,15.3461703 7.59906122,15.1219084 7.48517823,14.8030361 C7.3695432,14.4824117 7.44838527,14.1249943 7.68841556,13.884964 L9.54733629,12.0260433 L0.256236717,2.7349437 C-0.0854122392,2.39329474 -0.0854122392,1.83789618 0.256236717,1.49624723 L1.49493319,0.257550752 C1.83658215,-0.0858502506 2.39022866,-0.0858502506 2.73362966,0.257550752 L12.0247292,9.54865033 L13.88365,7.68972959 C14.1236803,7.4496993 14.4810976,7.37085723 14.801722,7.48474022 C14.9243653,7.53029341 15.0329921,7.60037525 15.1223464,7.68972959 C15.2642622,7.83164531 15.3571206,8.02086627 15.3746411,8.23111179 L15.9948653,15.0448184 C16.019394,15.3041212 15.9247835,15.5581679 15.7408187,15.7421327 Z" id="Combined-Shape" fill="#000000" fill-rule="nonzero" transform="translate(14.000000, 14.000000) scale(-1, 1) translate(-14.000000, -14.000000) "></path>
    </g>
</svg>