<?xml version="1.0" encoding="UTF-8"?>
<svg width="28px" height="28px" viewBox="0 0 28 28" version="1.1" xmlns="http://www.w3.org/2000/svg" xmlns:xlink="http://www.w3.org/1999/xlink">
    <!-- Generator: Sketch 51.2 (57519) - http://www.bohemiancoding.com/sketch -->
    <title>broom</title>
    <desc>Created with Sketch.</desc>
    <defs></defs>
    <g id="Page-1" stroke="none" stroke-width="1" fill="none" fill-rule="evenodd">
        <g id="broom" fill="#000000" fill-rule="nonzero">
            <path d="M17.4929531,11.1936563 L17.6605313,11.3611406 L11.3611875,17.6604844 L11.1936562,17.4929531 C10.1864531,16.4857969 10.1865469,14.8557656 11.1936562,13.8487031 L11.2843594,13.758 L0.509484375,2.97571875 C-0.170015625,2.29579688 -0.169828125,1.18959375 0.50990625,0.50990625 C1.18964062,-0.169828125 2.29584375,-0.170015625 2.97576562,0.509484375 L13.758,11.2843594 L13.8487031,11.1936563 C14.8534219,10.1889375 16.4882344,10.1889375 17.4929531,11.1936563 Z M23.5170469,15.3350625 C23.8525781,15.4449844 24.0540469,15.7872656 23.98725,16.1339531 C23.7235781,17.5025625 21.3708281,19.9411875 20.6560313,20.6559844 C19.9412344,21.3707813 17.5026094,23.7234844 16.134,23.9872031 C15.7898906,24.053625 15.4486875,23.8553438 15.3367969,23.5219688 C15.322125,23.4788906 14.466375,21.0088594 12.3402656,18.6641719 L14.0117344,16.9927031 L16.5004688,19.4814375 C16.7742188,19.7552344 17.2181719,19.7551875 17.491875,19.4814375 C17.7656719,19.2076875 17.7656719,18.7638281 17.491875,18.4900313 L15.0031406,16.0012969 L16.0013438,15.0030938 L18.4900781,17.4918281 C18.7638281,17.765625 19.2077813,17.7655781 19.4814844,17.4918281 C19.7552813,17.2180781 19.7552813,16.7742188 19.4814844,16.5004219 L16.99275,14.0116875 L18.6638438,12.3405938 C21.0485625,14.5093594 23.4908906,15.3265313 23.5170469,15.3350625 Z M4.57411954e-14,10 L3,10 L3,25 L25,25 L25,3 L10,3 L10,1.60760287e-13 L25,4.70734495e-14 C26.6568542,4.70734495e-14 28,1.34314575 28,3 L28,25 C28,26.6568542 26.6568542,28 25,28 L3,28 C1.34314575,28 4.57411954e-14,26.6568542 4.57411954e-14,25 L4.57411954e-14,10 Z" id="Combined-Shape"></path>
        </g>
    </g>
</svg>