<?xml version="1.0" encoding="UTF-8"?>
<svg width="30px" height="28px" viewBox="0 0 30 28" version="1.1" xmlns="http://www.w3.org/2000/svg" xmlns:xlink="http://www.w3.org/1999/xlink">
    <!-- Generator: Sketch 51.2 (57519) - http://www.bohemiancoding.com/sketch -->
    <title>030-eraser copy 3</title>
    <desc>Created with Sketch.</desc>
    <defs></defs>
    <g id="Page-1" stroke="none" stroke-width="1" fill="none" fill-rule="evenodd">
        <g id="030-eraser-copy-3" fill="#000000" fill-rule="nonzero">
            <path d="M29.1595532,9.65342553 L20.3085319,0.793978723 C19.794,0.279 19.0888085,0.0214468085 18.3834894,0.0213191489 C17.6778511,0.0211914894 16.9722128,0.278744681 16.4574255,0.793978723 L0.79787234,16.4684681 C0.283212766,16.9835745 0,17.6677021 0,18.3958085 C0,19.1239149 0.281234043,19.8060638 0.80387234,20.3291489 L6.90025532,26.285617 C7.53989362,26.9105745 8.38429787,27.2553191 9.27925532,27.2553191 L13.860383,27.2553191 C14.7613404,27.2553191 15.6104043,26.9065532 16.2526596,26.2723404 L29.1595532,13.5081702 C29.6742128,12.9930638 29.9574255,12.3088723 29.9574255,11.5808298 C29.9574255,10.8527872 29.6742128,10.1685957 29.1595532,9.65342553 Z M14.3397447,24.3351064 C14.208766,24.4641064 14.0431915,24.5318936 13.860383,24.5318936 L9.27925532,24.5318936 C9.0977234,24.5318936 8.93348936,24.465383 8.80321277,24.3377234 L2.72342553,18.404234 L9.78989362,11.337766 L18.5884468,20.1369574 L14.3397447,24.3351064 Z" id="Shape"></path>
        </g>
    </g>
</svg>