<?xml version="1.0" encoding="UTF-8"?>
<svg width="28px" height="28px" viewBox="0 0 28 28" version="1.1" xmlns="http://www.w3.org/2000/svg" xmlns:xlink="http://www.w3.org/1999/xlink">
    <!-- Generator: Sketch 51.2 (57519) - http://www.bohemiancoding.com/sketch -->
    <title>import (1)</title>
    <desc>Created with Sketch.</desc>
    <defs></defs>
    <g id="Page-1" stroke="none" stroke-width="1" fill="none" fill-rule="evenodd">
        <g id="import-(1)" fill="#000000" fill-rule="nonzero">
            <path d="M28,21 L28,25 C28,26.6568542 26.6568542,28 25,28 L3,28 C1.34314575,28 0,26.6568542 0,25 L0,3 C0,1.34314575 1.34314575,0 3,0 L25,0 C26.6568542,0 28,1.34314575 28,3 L28,7 L25,7 L25,3 L3,3 L3,25 L25,25 L25,21 L28,21 Z M27.7,13.36 C27.8916667,13.5183333 28,13.7533333 28,14 C28,14.2466667 27.8916667,14.4816667 27.7,14.64 L22.7,18.8066667 C22.5483333,18.935 22.3583333,19 22.1666667,19 C22.0466667,19 21.925,18.9733333 21.8133333,18.9216667 C21.52,18.7833333 21.3333333,18.49 21.3333333,18.1666667 L21.3333333,15.6666667 L8.83333333,15.6666667 C8.37333333,15.6666667 8,15.2933333 8,14.8333333 L8,13.1666667 C8,12.7066667 8.37333333,12.3333333 8.83333333,12.3333333 L21.3333333,12.3333333 L21.3333333,9.83333333 C21.3333333,9.51 21.52,9.215 21.8133333,9.07833333 C22.105,8.94166667 22.4516667,8.98666667 22.7,9.19333333 L27.7,13.36 Z" id="Combined-Shape"></path>
        </g>
    </g>
</svg>