<?xml version="1.0" encoding="UTF-8"?>
<svg width="30px" height="30px" viewBox="0 0 30 30" version="1.1" xmlns="http://www.w3.org/2000/svg" xmlns:xlink="http://www.w3.org/1999/xlink">
    <!-- Generator: Sketch 51.2 (57519) - http://www.bohemiancoding.com/sketch -->
    <title>028-eyedropper copy 3</title>
    <desc>Created with Sketch.</desc>
    <defs></defs>
    <g id="Page-1" stroke="none" stroke-width="1" fill="none" fill-rule="evenodd">
        <g id="Artboard" transform="translate(-57.000000, -82.000000)" fill-rule="nonzero">
            <g id="Group" transform="translate(17.000000, 57.000000)">
                <g id="028-eyedropper-copy-3" transform="translate(40.000000, 25.000000)">
                    <path d="M11.0267561,26.2708763 C10.2431419,27.107242 9.13414251,27.5853277 7.98139278,27.5853277 C7.41510767,27.5853277 6.86923727,27.7508986 6.39882109,28.0653091 L4.13504406,29.5773073 C3.75766844,29.8290107 3.31920997,29.9602638 2.87267091,29.9602638 C2.27200989,29.9602638 1.69246142,29.723594 1.26161988,29.2918358 L0.725626241,28.7547017 C-0.0408765576,27.9866742 -0.160031745,26.784201 0.441177136,25.880522 L1.87408996,23.7256862 C2.23773532,23.1785302 2.42934183,22.5446615 2.42934183,21.8887149 C2.42934183,20.7705497 2.86601432,19.713504 3.65582562,18.9211538 L11.9647755,10.5944704 L11.8443715,10.4738103 C11.2055237,9.83360327 11.2055237,8.7968478 11.8443715,8.1566408 L14.397484,5.59809612 C15.0375043,4.95671406 16.0757186,4.95671406 16.7157389,5.59809612 L24.3749576,13.2736706 C25.0138054,13.9138776 25.0138054,14.9506331 24.3749576,15.59084 L21.8218451,18.1493847 C21.5110612,18.4608299 21.0939406,18.6304511 20.6627176,18.6304511 C20.2314947,18.6304511 19.8143741,18.4608299 19.5035902,18.1493847 L19.3522938,17.9977664 C15.7737939,21.4809914 12.2652122,24.9516978 11.0267561,26.2708763 Z M24.2905902,0 C27.4181921,0 29.9603482,2.54756495 29.9603482,5.67963404 C29.9603482,7.19374216 29.3698103,8.62237419 28.3003079,9.69487409 L25.2515864,12.7500822 C24.9415784,13.0606007 24.5255922,13.2297277 24.0955414,13.2297277 C23.6654388,13.2297277 23.2493171,13.0605621 22.9393269,12.7499124 L17.2324053,7.03084839 C16.5950637,6.39230407 16.5950637,5.35810451 17.2323205,4.71949187 L20.2806344,1.6646923 C21.3495461,0.592783621 22.7772142,0 24.2905902,0 Z" id="Combined-Shape" fill="#FFFFFF"></path>
                    <path d="M16.0078811,6.30445106 C15.7585563,6.05459574 15.3546667,6.05459574 15.1053418,6.30445106 L12.5522293,8.86299574 C12.3029045,9.11285106 12.3029045,9.5176 12.5522293,9.76745532 L13.3774862,10.5944681 L4.36368577,19.6275064 C3.76094268,20.2321872 3.42934183,21.0354298 3.42934183,21.8887149 C3.42934183,22.742 3.17936306,23.5683574 2.70692994,24.2792 L1.27387686,26.4342468 C0.93603397,26.9420596 1.00332909,27.6173362 1.43343524,28.0482979 L1.96947771,28.5854809 C2.21630573,28.832834 2.54291295,28.9602638 2.87267091,28.9602638 C3.11765605,28.9602638 3.36383015,28.8896681 3.58016136,28.7453787 L5.84340552,27.2337362 C6.47795329,26.8096255 7.21718896,26.5853277 7.98139278,26.5853277 C8.85842887,26.5853277 9.70300637,26.2211489 10.2970106,25.5871574 C11.9022845,23.8772511 16.8285011,19.0544 19.3628875,16.5926638 L20.211448,17.4430298 C20.3361104,17.5679574 20.499414,17.6304511 20.6627176,17.6304511 C20.8260212,17.6304511 20.9893248,17.5679574 21.1139873,17.4430298 L23.6670998,14.8844851 C23.9164246,14.6346298 23.9164246,14.2298809 23.6670998,13.9800255 L16.0078811,6.30445106 Z M8.43640764,23.8350723 C8.3242293,23.9549957 8.15402972,24.0268426 7.98139278,24.0268426 C7.1025138,24.0268426 6.24360934,24.2055064 5.44825478,24.5490723 C5.79983015,23.7114553 5.98245435,22.8094383 5.98245435,21.8887149 C5.98245435,21.7157106 6.04725265,21.5582553 6.16947771,21.4358298 L15.1826242,12.4035064 L17.55769,14.7836255 C15.2058089,17.0682468 10.1535626,22.0059574 8.43640764,23.8350723 Z M24.2905902,1 C26.8654607,1 28.9603482,3.09940426 28.9603482,5.67963404 C28.9603482,6.92885106 28.474896,8.1036 27.5924501,8.98851915 L24.5438981,12.0435574 C24.4200085,12.1676511 24.2577749,12.2297277 24.0955414,12.2297277 C23.9333079,12.2297277 23.7710149,12.1676511 23.6471847,12.0435574 L17.9401783,6.32440851 C17.6924586,6.07622128 17.6924586,5.67409362 17.9401783,5.42584681 L20.9887304,2.37080851 C21.8699278,1.48714043 23.0427771,1 24.2905902,1 Z" id="Combined-Shape" fill="#000000"></path>
                </g>
            </g>
        </g>
    </g>
</svg>