<?xml version="1.0" encoding="UTF-8"?>
<svg width="28px" height="28px" viewBox="0 0 28 28" version="1.1" xmlns="http://www.w3.org/2000/svg" xmlns:xlink="http://www.w3.org/1999/xlink">
    <!-- Generator: Sketch 51.2 (57519) - http://www.bohemiancoding.com/sketch -->
    <title>028-eyedropper copy 3</title>
    <desc>Created with Sketch.</desc>
    <defs></defs>
    <g id="Page-1" stroke="none" stroke-width="1" fill="none" fill-rule="evenodd">
        <g id="028-eyedropper-copy-3" fill="#000000" fill-rule="nonzero">
            <path d="M15.0078811,5.30445106 C14.7585563,5.05459574 14.3546667,5.05459574 14.1053418,5.30445106 L11.5522293,7.86299574 C11.3029045,8.11285106 11.3029045,8.5176 11.5522293,8.76745532 L12.3774862,9.59446809 L3.36368577,18.6275064 C2.76094268,19.2321872 2.42934183,20.0354298 2.42934183,20.8887149 C2.42934183,21.742 2.17936306,22.5683574 1.70692994,23.2792 L0.273876858,25.4342468 C-0.0639660297,25.9420596 0.00332908705,26.6173362 0.433435244,27.0482979 L0.969477707,27.5854809 C1.21630573,27.832834 1.54291295,27.9602638 1.87267091,27.9602638 C2.11765605,27.9602638 2.36383015,27.8896681 2.58016136,27.7453787 L4.84340552,26.2337362 C5.47795329,25.8096255 6.21718896,25.5853277 6.98139278,25.5853277 C7.85842887,25.5853277 8.70300637,25.2211489 9.29701062,24.5871574 C10.9022845,22.8772511 15.8285011,18.0544 18.3628875,15.5926638 L19.211448,16.4430298 C19.3361104,16.5679574 19.499414,16.6304511 19.6627176,16.6304511 C19.8260212,16.6304511 19.9893248,16.5679574 20.1139873,16.4430298 L22.6670998,13.8844851 C22.9164246,13.6346298 22.9164246,13.2298809 22.6670998,12.9800255 L15.0078811,5.30445106 Z M7.43640764,22.8350723 C7.3242293,22.9549957 7.15402972,23.0268426 6.98139278,23.0268426 C6.1025138,23.0268426 5.24360934,23.2055064 4.44825478,23.5490723 C4.79983015,22.7114553 4.98245435,21.8094383 4.98245435,20.8887149 C4.98245435,20.7157106 5.04725265,20.5582553 5.16947771,20.4358298 L14.1826242,11.4035064 L16.55769,13.7836255 C14.2058089,16.0682468 9.15356263,21.0059574 7.43640764,22.8350723 Z" id="Shape"></path>
            <path d="M23.2905902,0 C22.0427771,0 20.8699278,0.487140426 19.9887304,1.37080851 L16.9401783,4.42584681 C16.6924586,4.67409362 16.6924586,5.07622128 16.9401783,5.32440851 L22.6471847,11.0435574 C22.7710149,11.1676511 22.9333079,11.2297277 23.0955414,11.2297277 C23.2577749,11.2297277 23.4200085,11.1676511 23.5438981,11.0435574 L26.5924501,7.98851915 C27.474896,7.1036 27.9603482,5.92885106 27.9603482,4.67963404 C27.9603482,2.09940426 25.8654607,0 23.2905902,0 Z" id="Shape"></path>
        </g>
    </g>
</svg>