<?xml version="1.0" encoding="UTF-8"?>
<svg width="28px" height="28px" viewBox="0 0 28 28" version="1.1" xmlns="http://www.w3.org/2000/svg" xmlns:xlink="http://www.w3.org/1999/xlink">
    <!-- Generator: Sketch 51.2 (57519) - http://www.bohemiancoding.com/sketch -->
    <title>019-paint-bucket copy 3</title>
    <desc>Created with Sketch.</desc>
    <defs></defs>
    <g id="Page-1" stroke="none" stroke-width="1" fill="none" fill-rule="evenodd">
        <g id="019-paint-bucket-copy-3" fill="#000000" fill-rule="nonzero">
            <path d="M25.1007489,14.5828766 C25.2762553,14.3306383 25.3988596,14.0335404 25.416434,13.6735915 C25.5007915,11.8658638 23.3900085,8.48316596 20.1635745,5.25619574 C16.9706213,2.0633617 13.7032596,0 11.8232681,0 C11.1991064,0.00869787234 10.8268255,0.255693617 10.6257617,0.457353191 C10.6231404,0.459974468 8.92902128,2.55538723 8.92902128,2.55538723 C5.76442553,2.69604255 1.27537021,4.9333617 1.27537021,8.26101277 C1.27537021,9.14718298 1.59182979,9.93529362 2.21724255,10.6030638 C2.3909617,10.7890553 2.59601702,10.9620596 2.81739574,11.1274383 C2.82722553,11.1356 3.35046809,11.4768426 3.35994043,11.4817277 C5.01086809,12.4377787 7.23025532,12.7092596 8.26428936,12.7092596 C10.0090468,12.7092596 11.2772681,12.6620766 12.9376085,12.0321957 C13.2615149,11.9105447 13.6374894,12.0849191 13.7553872,12.4014383 C13.8162128,12.5603234 13.8112085,12.7328511 13.7417447,12.8873277 C13.6722213,13.0424596 13.5456851,13.1610128 13.3868596,13.221183 C11.5292085,13.9255319 10.0922128,13.9801617 8.26428936,13.9801617 C6.43636596,13.9801617 3.8329617,13.4892681 2.00628936,12.1116085 C1.73451064,11.9056 1.34614468,11.9521277 1.13018723,12.2202128 L0.405523404,13.1231234 C0.234246809,13.2949957 0.0245446809,13.607166 0.00220425532,14.1153957 C-0.0697617021,15.6494383 1.63156596,18.386766 4.33302979,21.0887064 C6.96628085,23.7223745 9.66530213,25.4233447 11.2077447,25.4233447 C11.2114979,25.4233447 11.2412255,25.4233447 11.2462298,25.4233447 C11.7922298,25.4128 12.1210809,25.1949957 12.2489277,25.0609532 L24.7587319,14.9636766 C24.7624255,14.9611745 25.0696511,14.6597277 25.1007489,14.5828766 Z M3.14070638,9.72886809 C2.74108085,9.29969362 2.54609362,8.8195234 2.54609362,8.26101277 C2.54609362,6.16077447 5.32667234,4.4942383 7.77923404,3.98040851 L3.14070638,9.72886809 Z M17.2225617,8.19768511 C15.0497021,6.02506383 13.8137106,4.20804255 13.1982468,3.0352 C14.4242894,3.67502979 16.2769957,4.9639234 18.3666894,7.05337872 C20.5284085,9.21605106 21.7618383,11.0386723 22.3748596,12.214017 C21.1550128,11.5741872 19.3097532,10.2858894 17.2225617,8.19768511 Z" id="Shape"></path>
            <path d="M25.3055064,19.3381106 C25.0697106,18.9943064 24.4963064,18.9943064 24.2604511,19.3381106 C23.8173362,19.9797872 21.605634,23.2582298 21.605634,24.7829787 C21.605634,26.5348255 23.0304766,27.9602638 24.7829191,27.9602638 C26.5354213,27.9602638 27.9602043,26.5348255 27.9602043,24.7829787 C27.9602638,23.2582298 25.7485617,19.9797872 25.3055064,19.3381106 Z" id="Shape"></path>
        </g>
    </g>
</svg>