<?xml version="1.0" encoding="UTF-8"?>
<svg width="32px" height="28px" viewBox="0 0 32 28" version="1.1" xmlns="http://www.w3.org/2000/svg" xmlns:xlink="http://www.w3.org/1999/xlink">
    <!-- Generator: Sketch 51.2 (57519) - http://www.bohemiancoding.com/sketch -->
    <title>Combined Shape Copy 7</title>
    <desc>Created with Sketch.</desc>
    <defs></defs>
    <g id="Page-1" stroke="none" stroke-width="1" fill="none" fill-rule="evenodd">
        <path d="M4.7659641,21.2359653 L25.0709688,4.2046937 C25.0244359,3.97706227 25,3.74138478 25,3.5 C25,1.56700338 26.5670034,0 28.5,0 C30.4329966,0 32,1.56700338 32,3.5 C32,5.43299662 30.4329966,7 28.5,7 C27.9153414,7 27.3641652,6.85664516 26.8797036,6.60316778 L6.83023137,23.4201058 C6.94044422,23.7602281 7,24.123159 7,24.5 C7,26.4329966 5.43299662,28 3.5,28 C1.56700338,28 0,26.4329966 0,24.5 C0,22.5670034 1.56700338,21 3.5,21 C3.94644294,21 4.37336305,21.0835872 4.7659641,21.2359653 Z" id="Combined-Shape-Copy-7" fill="#000000" fill-rule="nonzero"></path>
    </g>
</svg>