<?xml version="1.0" encoding="UTF-8"?>
<svg width="21px" height="24px" viewBox="0 0 21 24" version="1.1" xmlns="http://www.w3.org/2000/svg" xmlns:xlink="http://www.w3.org/1999/xlink">
    <!-- Generator: Sketch 51.2 (57519) - http://www.bohemiancoding.com/sketch -->
    <title>Shape Copy 8</title>
    <desc>Created with Sketch.</desc>
    <defs></defs>
    <g id="Page-1" stroke="none" stroke-width="1" fill="none" fill-rule="evenodd">
        <path d="M22,12.6362632 L22,14.7484237 C22,19.8497501 17.8003269,24 12.6383726,24 L3.58063006,24 C2.25887604,24 1.1873827,22.9285067 1.1873827,21.6067526 L1.1873827,21.6067526 C1.1873827,20.2849986 2.25887604,19.2135053 3.58063006,19.2135053 L12.6383726,19.2135053 C15.129624,19.2135053 17.1565054,17.2104769 17.1565054,14.7484237 L17.1565054,12.6362632 C17.1565054,10.1743297 15.1297451,8.17130128 12.6383726,8.17130128 L10.3828782,8.17130128 L10.3828782,9.55891353 C10.3828782,10.663483 9.48744775,11.5589135 8.38287825,11.5589135 C7.95052197,11.5589135 7.52980738,11.4188066 7.18377676,11.159587 L2.13674205,7.37873675 C1.25271449,6.71649128 1.07292458,5.46298933 1.73517004,4.57896177 C1.84924675,4.42668145 1.98447005,4.29145891 2.13675101,4.17738305 L7.18390681,0.396486158 C8.06793807,-0.265754359 9.32143902,-0.0859574329 9.98367954,0.798073832 C10.2428948,1.14410283 10.3829993,1.56481391 10.3829993,1.99716636 L10.3829993,3.38480656 L12.6384937,3.38480656 C17.800448,3.38480656 22,7.53505647 22,12.6362632 Z" id="Shape-Copy-8" fill="#000000" fill-rule="nonzero" transform="translate(11.000000, 11.000000) scale(-1, 1) translate(-11.000000, -11.000000) "></path>
    </g>
</svg>