<?xml version="1.0" encoding="UTF-8"?>
<svg width="27px" height="28px" viewBox="0 0 27 28" version="1.1" xmlns="http://www.w3.org/2000/svg" xmlns:xlink="http://www.w3.org/1999/xlink">
    <!-- Generator: Sketch 51.2 (57519) - http://www.bohemiancoding.com/sketch -->
    <title>Combined Shape</title>
    <desc>Created with Sketch.</desc>
    <defs></defs>
    <g id="Page-1" stroke="none" stroke-width="1" fill="none" fill-rule="evenodd">
        <g id="settings-(5)" fill="#000000" fill-rule="nonzero">
            <path d="M26.4581387,22.9245918 L25.2632305,21.9902168 C25.2783887,21.846125 25.2913887,21.6776836 25.2913887,21.4994668 C25.2913887,21.32125 25.2789219,21.1528086 25.2632305,21.0087168 L26.4592305,20.0738086 C26.6813223,19.8983086 26.7419805,19.5868418 26.6006055,19.3274004 L25.3580137,17.1775 C25.2252969,16.9348418 24.9344219,16.81025 24.6392305,16.919125 L23.2292637,17.4851582 C22.9589805,17.2901582 22.6756719,17.1255 22.3826387,16.993875 L22.1681387,15.4983418 C22.1329219,15.2145 21.8859219,15 21.5939805,15 L19.1023223,15 C18.8103555,15 18.5639141,15.2145 18.5292305,15.494 L18.3141973,16.9949668 C18.0303555,17.1228086 17.7514141,17.2853086 17.4691973,17.48625 L16.0554473,16.9185918 C15.7905469,16.8162168 15.4736719,16.9310332 15.3420469,17.172625 L14.0978555,19.3252168 C13.9510723,19.5733086 14.0117305,19.8955918 14.2386973,20.0754336 L15.4336055,21.0098086 C15.4146387,21.1923418 15.4054473,21.3510586 15.4054473,21.5000254 C15.4054473,21.6489922 15.4146641,21.8076836 15.4336055,21.9907754 L14.2376055,22.9256836 C14.0155137,23.1017168 13.9553887,23.4131836 14.0967637,23.6720918 L15.3393555,25.8219668 C15.4720723,26.0640918 15.7602305,26.18975 16.0581387,26.0803418 L17.4681055,25.5143086 C17.7378555,25.7087754 18.0211387,25.8734336 18.3141973,26.0055918 L18.5286973,27.5005918 C18.5638887,27.7855 18.8103555,28 19.1028555,28 L21.5945137,28 C21.8864805,28 22.1334805,27.7855 22.1681387,27.506 L22.3831719,26.0055918 C22.6670137,25.8772168 22.9454219,25.71525 23.2281719,25.51375 L24.6419219,26.0814082 C24.7101719,26.1079414 24.7811387,26.1215 24.8542637,26.1215 C25.0644219,26.1215 25.2577969,26.0066582 25.3552969,25.8279082 L26.6032969,23.6666582 C26.7419805,23.4131582 26.6812969,23.1017168 26.4581387,22.9245918 Z M20.3481387,23.6666582 C19.1532305,23.6666582 18.1814805,22.6949082 18.1814805,21.5 C18.1814805,20.3050918 19.1532305,19.3333418 20.3481387,19.3333418 C21.5430469,19.3333418 22.5147969,20.3050918 22.5147969,21.5 C22.5147969,22.6949082 21.5430469,23.6666582 20.3481387,23.6666582 Z M18.2080488,11.5820957 C18.5342031,11.8409707 18.6228945,12.2961543 18.4202031,12.6666543 L16.5962031,15.8254043 C16.4537031,16.0866543 16.1710781,16.2545 15.8639238,16.2545 C15.7570488,16.2545 15.6533281,16.2346836 15.5535781,16.1959043 L13.4873281,15.36625 C13.0740781,15.66075 12.6671738,15.8974707 12.2523281,16.0850957 L11.9380488,18.278 C11.8873945,18.6865 11.5263945,19 11.0996738,19 L7.45801953,19 C7.03051953,19 6.67029883,18.6865 6.61886523,18.2700957 L6.30536523,16.0850957 C5.87704883,15.8919414 5.46301953,15.6512871 5.06876953,15.3670664 L3.00804883,16.1943457 C2.57264453,16.35425 2.15149023,16.1705957 1.95751953,15.8167207 L0.141423828,12.6745957 C-0.0652011719,12.2961914 0.0226738281,11.8409707 0.347269531,11.5836914 L2.09526953,10.2172871 C2.06758594,9.94969141 2.05411523,9.71775781 2.05411523,9.50003711 C2.05411523,9.28231641 2.06754883,9.0503457 2.09526953,8.78356641 L0.348865234,7.41794141 C0.0171445312,7.1550957 -0.0715097656,6.68406641 0.143019531,6.3214707 L1.96145312,3.175375 C2.15382812,2.8222793 2.61695312,2.6544707 3.00411523,2.8040957 L5.07036523,3.63375 C5.48283594,3.34006641 5.89051953,3.10256641 6.30536523,2.9157207 L6.61964453,0.722 C6.67033594,0.3135 7.03051953,0 7.45724023,0 L11.0988945,0 C11.5255781,0 11.8865781,0.3135 11.9380488,0.728345703 L12.2515488,2.914125 C12.6798281,3.1065 13.0938945,3.3471543 13.4889238,3.6321543 L15.5496445,2.804875 C15.9810781,2.64575 16.4062031,2.8278457 16.6001738,3.1825 L18.4162695,6.32466211 C18.6228945,6.7038457 18.5342402,7.15906641 18.2096445,7.41556641 L16.4616445,8.7819707 C16.4845781,8.99256641 16.5027988,9.23875 16.5027988,9.4992207 C16.5027988,9.75969141 16.4837988,10.005875 16.4616445,10.2164707 L18.2080488,11.5820957 Z M9.27804883,12.6666543 C11.0244531,12.6666543 12.4447031,11.2464043 12.4447031,9.5 C12.4447031,7.7535957 11.0244531,6.3333457 9.27804883,6.3333457 C7.53164453,6.3333457 6.11139453,7.7535957 6.11139453,9.5 C6.11139453,11.2464043 7.53164453,12.6666543 9.27804883,12.6666543 Z" id="Combined-Shape"></path>
        </g>
    </g>
</svg>