<?xml version="1.0" encoding="UTF-8"?>
<svg width="30px" height="30px" viewBox="0 0 30 30" version="1.1" xmlns="http://www.w3.org/2000/svg" xmlns:xlink="http://www.w3.org/1999/xlink">
    <!-- Generator: Sketch 51.2 (57519) - http://www.bohemiancoding.com/sketch -->
    <title>019-paint-bucket copy 3</title>
    <desc>Created with Sketch.</desc>
    <defs></defs>
    <g id="Page-1" stroke="none" stroke-width="1" fill="none" fill-rule="evenodd">
        <g id="Artboard" transform="translate(-217.000000, -122.000000)" fill-rule="nonzero">
            <g id="Group" transform="translate(17.000000, 57.000000)">
                <g id="019-paint-bucket-copy-3" transform="translate(200.000000, 65.000000)">
                    <path d="M26.3868132,16.7418244 L13.9167717,26.8070064 C13.5396305,27.167947 12.9517653,27.4098964 12.2462298,27.4233447 C10.3200436,27.4233447 7.43278256,25.6031172 4.62586064,22.7957508 C1.7368238,19.9062043 -0.0859853799,16.9718224 0.003168981,15.0714808 C0.0325436027,14.4032278 0.277657572,13.8599071 0.654546949,13.4611815 L1.35143332,12.5928832 C1.59076465,12.2957823 1.91314534,12.1040107 2.25869862,12.0246923 C1.61098555,11.2269907 1.27537021,10.2888675 1.27537021,9.26101277 C1.27537021,5.75628169 5.36532385,2.9535881 9.42575994,2.58731604 C9.53178617,2.45618488 9.69070016,2.25964766 9.99961185,1.87760043 C10.317473,1.48451411 10.317473,1.48451411 10.5824083,1.15693884 C10.7830095,0.907492023 10.7830095,0.907492023 10.9176097,0.751293199 C11.3699034,0.297659324 12.0082011,0.0112611011 12.8232681,0 C15.0457022,0 18.4991224,2.17765594 21.87074,5.54914771 C25.2838373,8.96281225 27.5170188,12.541442 27.4152442,14.7223583 C27.3892972,15.2537897 27.2159091,15.731037 26.9215988,16.1540206 C26.751647,16.4032363 26.4766047,16.6843121 26.3868132,16.7418244 Z M28.6723244,22.2422115 C29.4877122,23.7038425 29.9602397,24.8766582 29.9602043,25.7829787 C29.9602043,28.0873046 28.0875117,29.9602638 25.7829191,29.9602638 C23.4783685,29.9602638 21.605634,28.087287 21.605634,25.7829787 C21.605634,24.8766307 22.0781846,23.7038086 22.8935786,22.2422024 C23.3954474,21.3425947 23.9501138,20.4757844 24.4358384,19.7724129 C25.0686602,18.849954 26.4958269,18.849523 27.1292979,19.771217 C27.6168743,20.4774494 28.1708126,21.3432219 28.6723244,22.2422115 Z" id="Combined-Shape" fill="#FFFFFF"></path>
                    <path d="M26.1007489,15.5828766 C26.2762553,15.3306383 26.3988596,15.0335404 26.416434,14.6735915 C26.5007915,12.8658638 24.3900085,9.48316596 21.1635745,6.25619574 C17.9706213,3.0633617 14.7032596,1 12.8232681,1 C12.1991064,1.00869787 11.8268255,1.25569362 11.6257617,1.45735319 C11.6231404,1.45997447 9.92902128,3.55538723 9.92902128,3.55538723 C6.76442553,3.69604255 2.27537021,5.9333617 2.27537021,9.26101277 C2.27537021,10.147183 2.59182979,10.9352936 3.21724255,11.6030638 C3.3909617,11.7890553 3.59601702,11.9620596 3.81739574,12.1274383 C3.82722553,12.1356 4.35046809,12.4768426 4.35994043,12.4817277 C6.01086809,13.4377787 8.23025532,13.7092596 9.26428936,13.7092596 C11.0090468,13.7092596 12.2772681,13.6620766 13.9376085,13.0321957 C14.2615149,12.9105447 14.6374894,13.0849191 14.7553872,13.4014383 C14.8162128,13.5603234 14.8112085,13.7328511 14.7417447,13.8873277 C14.6722213,14.0424596 14.5456851,14.1610128 14.3868596,14.221183 C12.5292085,14.9255319 11.0922128,14.9801617 9.26428936,14.9801617 C7.43636596,14.9801617 4.8329617,14.4892681 3.00628936,13.1116085 C2.73451064,12.9056 2.34614468,12.9521277 2.13018723,13.2202128 L1.4055234,14.1231234 C1.23424681,14.2949957 1.02454468,14.607166 1.00220426,15.1153957 C0.930238298,16.6494383 2.63156596,19.386766 5.33302979,22.0887064 C7.96628085,24.7223745 10.6653021,26.4233447 12.2077447,26.4233447 C12.2114979,26.4233447 12.2412255,26.4233447 12.2462298,26.4233447 C12.7922298,26.4128 13.1210809,26.1949957 13.2489277,26.0609532 L25.7587319,15.9636766 C25.7624255,15.9611745 26.0696511,15.6597277 26.1007489,15.5828766 Z M4.14070638,10.7288681 C3.74108085,10.2996936 3.54609362,9.8195234 3.54609362,9.26101277 C3.54609362,7.16077447 6.32667234,5.4942383 8.77923404,4.98040851 L4.14070638,10.7288681 Z M18.2225617,9.19768511 C16.0497021,7.02506383 14.8137106,5.20804255 14.1982468,4.0352 C15.4242894,4.67502979 17.2769957,5.9639234 19.3666894,8.05337872 C21.5284085,10.2160511 22.7618383,12.0386723 23.3748596,13.214017 C22.1550128,12.5741872 20.3097532,11.2858894 18.2225617,9.19768511 Z M26.3055064,20.3381106 C26.7485617,20.9797872 28.9602638,24.2582298 28.9602043,25.7829787 C28.9602043,27.5348255 27.5354213,28.9602638 25.7829191,28.9602638 C24.0304766,28.9602638 22.605634,27.5348255 22.605634,25.7829787 C22.605634,24.2582298 24.8173362,20.9797872 25.2604511,20.3381106 C25.4963064,19.9943064 26.0697106,19.9943064 26.3055064,20.3381106 Z" id="Combined-Shape" fill="#000000"></path>
                </g>
            </g>
        </g>
    </g>
</svg>