<?xml version="1.0" encoding="UTF-8"?>
<svg width="28px" height="28px" viewBox="0 0 28 28" version="1.1" xmlns="http://www.w3.org/2000/svg" xmlns:xlink="http://www.w3.org/1999/xlink">
    <!-- Generator: Sketch 51.2 (57519) - http://www.bohemiancoding.com/sketch -->
    <title>014-pencil-1 copy 3</title>
    <desc>Created with Sketch.</desc>
    <defs></defs>
    <g id="Page-1" stroke="none" stroke-width="1" fill="none" fill-rule="evenodd">
        <g id="014-pencil-1-copy-3" fill="#000000" fill-rule="nonzero">
            <path d="M20.7246468,9.01701277 C20.4863489,8.77853617 20.064383,8.77853617 19.8260851,9.01701277 L7.73925957,21.1140255 C7.59467234,21.2587319 7.52890213,21.4637277 7.56113191,21.665566 C7.59401702,21.8674043 7.72186383,22.0413021 7.90428085,22.1326298 L8.89655319,22.6294809 L8.89655319,24.3004851 L5.85640851,25.1703915 L2.78772766,22.0990894 L3.65691915,19.0563234 L5.32649362,19.0563234 L5.82292766,20.0494298 C5.91413617,20.2320255 6.08791489,20.3599915 6.28957447,20.3928766 C6.32371064,20.3984766 6.35784681,20.4009191 6.39132766,20.4009191 C6.55825532,20.4009191 6.72083404,20.3350894 6.8406383,20.2145702 L18.9274638,8.11761702 C19.0466128,7.99834894 19.113634,7.83690213 19.113634,7.66794894 C19.113634,7.49899574 19.0466128,7.33754894 18.9274638,7.21828085 L16.590417,4.87920851 C16.4712681,4.75994043 16.3099404,4.69285957 16.1411064,4.69285957 L16.1398553,4.69285957 C15.9704255,4.69345532 15.8084426,4.76119149 15.6899489,4.88105532 L2.72630638,17.9725447 C2.72005106,17.9789191 2.72034894,17.9886298 2.71433191,17.9951234 C2.64909787,18.0656 2.59464681,18.1469787 2.56617021,18.2458128 L1.46279149,22.109634 L0.0243659574,27.1498723 C-0.0389617021,27.3716085 0.0231148936,27.6107404 0.186348936,27.7740936 C0.307344681,27.8952085 0.46932766,27.9604426 0.635659574,27.9604426 C0.693982979,27.9604426 0.752306383,27.9523404 0.810034043,27.9361957 L5.8459234,26.4965191 L9.70646809,25.3921872 C9.71808511,25.3888511 9.72606809,25.3800936 9.73744681,25.3761021 C9.77754043,25.3622809 9.81262979,25.3397617 9.84950638,25.3179574 C9.88572766,25.2964511 9.92194894,25.2773277 9.95257021,25.2496851 C9.96079149,25.242417 9.97157447,25.2397362 9.97949787,25.2319319 L23.0598468,12.2572681 C23.1795915,12.1386553 23.2472681,11.9765532 23.2478638,11.8070043 C23.2484596,11.6380511 23.1814383,11.4759489 23.0616936,11.3560851 L20.7246468,9.01701277 Z" id="Shape"></path>
            <path d="M27.2157617,4.53766809 L23.4029957,0.721685106 C22.4423574,-0.239787234 20.7711745,-0.241634043 19.806783,0.723531915 L17.4790298,3.0744 C17.2326894,3.32348085 17.2332851,3.72405957 17.4808766,3.97188936 L23.9682979,10.4647915 C24.0923915,10.5890043 24.2550298,10.6511404 24.4176085,10.6511404 C24.5795915,10.6511404 24.7409191,10.5896596 24.8650128,10.4666979 L27.2157021,8.13513191 C27.6960511,7.65442553 27.960383,7.01590638 27.960383,6.33645957 C27.960383,5.65701277 27.6961106,5.01837447 27.2157617,4.53766809 Z" id="Shape"></path>
        </g>
    </g>
</svg>