<?xml version="1.0" encoding="UTF-8"?>
<svg width="30px" height="30px" viewBox="0 0 30 30" version="1.1" xmlns="http://www.w3.org/2000/svg" xmlns:xlink="http://www.w3.org/1999/xlink">
    <!-- Generator: Sketch 51.2 (57519) - http://www.bohemiancoding.com/sketch -->
    <title>Group 2</title>
    <desc>Created with Sketch.</desc>
    <defs></defs>
    <g id="Page-1" stroke="none" stroke-width="1" fill="none" fill-rule="evenodd">
        <g id="Artboard" transform="translate(-17.000000, -82.000000)" fill-rule="nonzero">
            <g id="Group" transform="translate(17.000000, 57.000000)">
                <g id="Group-2" transform="translate(0.000000, 25.000000)">
                    <path d="M17.3044966,4.70111754 C17.252798,4.22768115 17.4073942,3.73585556 17.7684382,3.37079529 L20.0993924,1.016709 C21.4534542,-0.338440172 23.7582579,-0.338440172 25.1104006,1.01487657 L28.923149,4.83084195 C29.5908124,5.49900221 29.960383,6.39186367 29.960383,7.33645957 C29.960383,8.28102029 29.5907777,9.17377292 28.919915,9.84512076 L26.5688725,12.1770369 C26.2589841,12.4840986 25.845507,12.6511404 25.4176085,12.6511404 C25.3579512,12.6511404 25.2985617,12.64789 25.2396855,12.6414627 C25.245305,12.6973769 25.2480577,12.7537963 25.2478577,12.8105179 C25.2463301,13.2452594 25.0723834,13.6618481 24.7640796,13.9672372 L11.6812276,26.9443751 C11.5760184,27.0295166 11.5298551,27.0668746 11.500289,27.0876756 C11.5082028,27.0787952 11.5463518,27.0498549 11.6226512,26.9919731 C11.5365331,27.0697139 11.472899,27.1119283 11.3772947,27.1677307 C11.2416701,27.2479359 11.1674516,27.2856188 11.0684573,27.3197292 C11.0538652,27.3249928 11.0211513,27.3379349 10.9814929,27.3536244 L7.12079476,28.4580002 L2.07936904,29.8992423 C1.93455372,29.9397428 1.78565246,29.9604426 1.63565957,29.9604426 C1.20310068,29.9604426 0.786883577,29.7891449 0.478984228,29.4809424 C0.0592894324,29.0609412 -0.10024941,28.4462013 0.0627592749,27.875441 L1.50123007,22.8350441 L2.60526065,18.9689503 C2.67846904,18.7148651 2.80874775,18.5013475 2.98081979,18.315447 C2.88663767,18.450838 2.84029918,18.5174516 2.81543974,18.5583677 C2.84727259,18.5004129 2.9006564,18.4270557 3.01573854,18.268916 L15.9787891,5.178025 C16.2845678,4.86871037 16.7013252,4.69439534 17.1398553,4.69285957 C17.1951131,4.69285957 17.2500545,4.69563824 17.3044966,4.70111754 Z" id="Combined-Shape" fill="#FFFFFF"></path>
                    <path d="M21.7246468,10.0170128 L24.0616936,12.3560851 C24.1814383,12.4759489 24.2484596,12.6380511 24.2478638,12.8070043 C24.2472681,12.9765532 24.1795915,13.1386553 24.0598468,13.2572681 L10.9794979,26.2319319 C10.9715745,26.2397362 10.9607915,26.242417 10.9525702,26.2496851 C10.9219489,26.2773277 10.8857277,26.2964511 10.8495064,26.3179574 C10.8126298,26.3397617 10.7775404,26.3622809 10.7374468,26.3761021 C10.7260681,26.3800936 10.7180851,26.3888511 10.7064681,26.3921872 L6.8459234,27.4965191 L1.81003404,28.9361957 C1.75230638,28.9523404 1.69398298,28.9604426 1.63565957,28.9604426 C1.46932766,28.9604426 1.30734468,28.8952085 1.18634894,28.7740936 C1.02311489,28.6107404 0.961038298,28.3716085 1.02436596,28.1498723 L2.46279149,23.109634 L3.56617021,19.2458128 C3.59464681,19.1469787 3.64909787,19.0656 3.71433191,18.9951234 C3.72034894,18.9886298 3.72005106,18.9789191 3.72630638,18.9725447 L16.6899489,5.88105532 C16.8084426,5.76119149 16.9704255,5.69345532 17.1398553,5.69285957 L17.1411064,5.69285957 C17.3099404,5.69285957 17.4712681,5.75994043 17.590417,5.87920851 L19.9274638,8.21828085 C20.0466128,8.33754894 20.113634,8.49899574 20.113634,8.66794894 C20.113634,8.83690213 20.0466128,8.99834894 19.9274638,9.11761702 L7.8406383,21.2145702 C7.72083404,21.3350894 7.55825532,21.4009191 7.39132766,21.4009191 C7.35784681,21.4009191 7.32371064,21.3984766 7.28957447,21.3928766 C7.08791489,21.3599915 6.91413617,21.2320255 6.82292766,21.0494298 L6.32649362,20.0563234 L4.65691915,20.0563234 L3.78772766,23.0990894 L6.85640851,26.1703915 L9.89655319,25.3004851 L9.89655319,23.6294809 L8.90428085,23.1326298 C8.72186383,23.0413021 8.59401702,22.8674043 8.56113191,22.665566 C8.52890213,22.4637277 8.59467234,22.2587319 8.73925957,22.1140255 L20.8260851,10.0170128 C21.064383,9.77853617 21.4863489,9.77853617 21.7246468,10.0170128 Z M28.2157617,5.53766809 C28.6961106,6.01837447 28.960383,6.65701277 28.960383,7.33645957 C28.960383,8.01590638 28.6960511,8.65442553 28.2157021,9.13513191 L25.8650128,11.4666979 C25.7409191,11.5896596 25.5795915,11.6511404 25.4176085,11.6511404 C25.2550298,11.6511404 25.0923915,11.5890043 24.9682979,11.4647915 L18.4808766,4.97188936 C18.2332851,4.72405957 18.2326894,4.32348085 18.4790298,4.0744 L20.806783,1.72353191 C21.7711745,0.758365957 23.4423574,0.760212766 24.4029957,1.72168511 L28.2157617,5.53766809 Z" id="Combined-Shape" fill="#000000"></path>
                </g>
            </g>
        </g>
    </g>
</svg>