<?xml version="1.0" encoding="UTF-8"?>
<svg width="32px" height="29px" viewBox="0 0 32 29" version="1.1" xmlns="http://www.w3.org/2000/svg" xmlns:xlink="http://www.w3.org/1999/xlink">
    <!-- Generator: Sketch 51.2 (57519) - http://www.bohemiancoding.com/sketch -->
    <title>Shape Copy 6</title>
    <desc>Created with Sketch.</desc>
    <defs></defs>
    <g id="Page-1" stroke="none" stroke-width="1" fill="none" fill-rule="evenodd">
        <path d="M3.56366135,28.4468318 C5.52770578,28.4468318 7.12732269,26.8472148 7.12732269,24.8831704 C7.12732269,23.6010118 6.4092939,22.5250513 5.38929661,21.8972966 C5.71574904,16.2403423 8.65881765,5.88913525 25.4577933,5.40045595 C26.0872136,6.41395751 27.1590102,7.12732269 28.4363387,7.12732269 C30.4003831,7.12732269 32,5.52770578 32,3.56366135 C32,1.59961692 30.4003831,0 28.4363387,0 C27.1165381,0 26.0075992,0.755004528 25.39167,1.82496903 C8.7640819,2.31298211 2.33630014,12.1591872 1.82763395,21.8365031 C0.756336987,22.4519326 0,23.5618709 0,24.8828373 C4.73384499e-15,26.8472148 1.59978348,28.4468318 3.56366135,28.4468318 Z" id="Shape-Copy-6" fill="#000000" fill-rule="nonzero" transform="translate(16.000000, 14.223416) scale(-1, -1) translate(-16.000000, -14.223416) "></path>
    </g>
</svg>