<?xml version="1.0" encoding="UTF-8"?>
<svg width="28px" height="25px" viewBox="0 0 28 25" version="1.1" xmlns="http://www.w3.org/2000/svg" xmlns:xlink="http://www.w3.org/1999/xlink">
    <!-- Generator: Sketch 51.2 (57519) - http://www.bohemiancoding.com/sketch -->
    <title>photo</title>
    <desc>Created with Sketch.</desc>
    <defs></defs>
    <g id="Page-1" stroke="none" stroke-width="1" fill="none" fill-rule="evenodd">
        <g id="photo" fill="#000000" fill-rule="nonzero">
            <path d="M16.4562127,10.6684581 C17.8215706,12.033816 17.8215706,14.2474765 16.4562127,15.6128344 C15.0908548,16.9781922 12.8771943,16.9781922 11.5118364,15.6128344 C10.1464785,14.2474765 10.1464785,12.033816 11.5118364,10.6684581 C12.8771943,9.3031002 15.0908548,9.3031002 16.4562127,10.6684581" id="Shape"></path>
            <path d="M24.4726299,3.52611043 L22.0570143,3.52611043 L20.3080736,0.0298895706 L7.6590593,0.0298895706 L5.91177914,3.52782822 L3.49959918,3.5321227 C1.5765317,3.53555828 0.0110511247,5.10269939 0.00939059305,7.02662577 L0,21.0062986 C0,22.9345194 1.568,24.5033783 3.49622086,24.5033783 L24.4726299,24.5033783 C26.4008507,24.5033783 27.9688507,22.9353783 27.9688507,21.0071575 L27.9688507,7.02227403 C27.9687935,5.09411043 26.4007935,3.52611043 24.4726299,3.52611043 Z M13.9839673,20.1330879 C10.1283845,20.1330879 6.99152556,16.996229 6.99152556,13.1406462 C6.99152556,9.28506339 10.1283845,6.1482045 13.9839673,6.1482045 C17.8395501,6.1482045 20.976409,9.28506339 20.976409,13.1406462 C20.976409,16.996229 17.8395501,20.1330879 13.9839673,20.1330879 Z" id="Shape"></path>
        </g>
    </g>
</svg>