<?xml version="1.0" encoding="UTF-8"?>
<svg width="21px" height="24px" viewBox="0 0 21 24" version="1.1" xmlns="http://www.w3.org/2000/svg" xmlns:xlink="http://www.w3.org/1999/xlink">
    <!-- Generator: Sketch 51.2 (57519) - http://www.bohemiancoding.com/sketch -->
    <title>Shape</title>
    <desc>Created with Sketch.</desc>
    <defs></defs>
    <g id="Page-1" stroke="none" stroke-width="1" fill="none" fill-rule="evenodd">
        <path d="M21,12.6362632 L21,14.7484237 C21,19.8497501 16.8003269,24 11.6383726,24 L2.58063006,24 C1.25887604,24 0.187382697,22.9285067 0.187382697,21.6067526 L0.187382697,21.6067526 C0.187382697,20.2849986 1.25887604,19.2135053 2.58063006,19.2135053 L11.6383726,19.2135053 C14.129624,19.2135053 16.1565054,17.2104769 16.1565054,14.7484237 L16.1565054,12.6362632 C16.1565054,10.1743297 14.1297451,8.17130128 11.6383726,8.17130128 L9.38287825,8.17130128 L9.38287825,9.55891353 C9.38287825,10.663483 8.48744775,11.5589135 7.38287825,11.5589135 C6.95052197,11.5589135 6.52980738,11.4188066 6.18377676,11.159587 L1.13674205,7.37873675 C0.252714492,6.71649128 0.0729245806,5.46298933 0.735170045,4.57896177 C0.849246753,4.42668145 0.984470045,4.29145891 1.13675101,4.17738305 L6.18390681,0.396486158 C7.06793807,-0.265754359 8.32143902,-0.0859574329 8.98367954,0.798073832 C9.24289483,1.14410283 9.38299933,1.56481391 9.38299933,1.99716636 L9.38299933,3.38480656 L11.6384937,3.38480656 C16.800448,3.38480656 21,7.53505647 21,12.6362632 Z" id="Shape" fill="#020202" fill-rule="nonzero"></path>
    </g>
</svg>